<svg width="90" height="57" viewBox="0 0 90 57" fill="none" xmlns="http://www.w3.org/2000/svg">
<g clip-path="url(#clip0_5_131)">
<g clip-path="url(#clip1_5_131)">
<g clip-path="url(#clip2_5_131)">
<path d="M50.2179 15.7529C46.1517 15.7529 42.8442 19.061 42.8442 23.1267C42.8442 27.1929 46.1517 30.5004 50.2179 30.5004C54.2841 30.5004 57.5916 27.1929 57.5916 23.1267C57.5916 19.061 54.2841 15.7529 50.2179 15.7529Z" fill="url(#paint0_linear_5_131)"/>
<path d="M69.8687 14.0231C67.8257 10.4359 64.3611 8.11541 61.4374 5.31975C59.2778 3.25818 56.7033 1.77085 53.8025 0.96122C49.1851 -0.361338 44.5255 0.368368 39.8752 0.772909C36.1144 1.08384 33.0921 3.08848 30.2067 5.29676C23.7483 10.2202 18.7066 16.169 17.3233 24.4021C15.877 33.0864 16.8798 41.117 23.8939 47.5754C27.4756 50.8889 31.3355 53.4634 36.2737 54.706C39.9118 55.935 43.8894 56.3631 47.7394 55.3274C51.3266 54.3628 54.8229 52.8799 58.1704 51.2606C63.09 48.8596 66.7418 45.0616 69.0957 40.1469C70.1221 37.9819 71.0538 35.7561 71.7315 33.4772C72.4426 31.0762 73.1116 28.5817 73.2282 26.1063C73.4269 21.7849 71.9959 17.7603 69.8687 14.0231ZM50.2181 33.5259C48.035 33.5259 46.0095 32.8466 44.3344 31.6926C40.5222 34.6564 36.71 37.6206 32.8973 40.5843C30.6173 42.3569 27.3809 39.1698 29.6888 37.3759C33.5459 34.3772 37.4025 31.379 41.259 28.3808C40.3503 26.8365 39.8193 25.0448 39.8193 23.1267C39.8193 17.3925 44.4844 12.7279 50.2186 12.7279C55.9528 12.7279 60.6179 17.3925 60.6179 23.1267C60.6173 28.8609 55.9522 33.5259 50.2181 33.5259Z" fill="url(#paint1_linear_5_131)"/>
</g>
<path d="M84.5368 18.2478H5.46289V37.8672H84.5368V18.2478Z" fill="white"/>
<g clip-path="url(#clip3_5_131)">
<g clip-path="url(#clip4_5_131)">
<g clip-path="url(#clip5_5_131)">
<g clip-path="url(#clip6_5_131)">
<g clip-path="url(#clip7_5_131)">
<g clip-path="url(#clip8_5_131)">
<g clip-path="url(#clip9_5_131)">
<path d="M9.59682 34.721C9.48074 34.721 9.38073 34.6853 9.29679 34.6138C9.21107 34.5424 9.16821 34.462 9.16821 34.3728V25.5997C9.16821 25.5015 9.21107 25.4229 9.29679 25.364C9.38073 25.3068 9.48074 25.2783 9.59682 25.2783C9.7129 25.2783 9.81112 25.3068 9.89149 25.364C9.97185 25.4229 10.012 25.5015 10.012 25.5997V26.2158C10.1638 25.9569 10.3915 25.722 10.6951 25.5113C10.9987 25.3024 11.3693 25.1979 11.8068 25.1979C12.2533 25.1979 12.6578 25.3113 13.0203 25.5381C13.3811 25.7667 13.6713 26.0685 13.8909 26.4435C14.1088 26.8186 14.2177 27.2382 14.2177 27.7026V29.1625C14.2177 29.6 14.1088 30.0153 13.8909 30.4081C13.6713 30.801 13.3828 31.1153 13.0257 31.3511C12.6685 31.5886 12.2756 31.7074 11.847 31.7074C11.4363 31.7074 11.0702 31.6047 10.7487 31.3993C10.4272 31.1939 10.1906 30.9528 10.0388 30.676V34.3728C10.0388 34.462 9.99685 34.5424 9.91292 34.6138C9.8272 34.6853 9.72183 34.721 9.59682 34.721ZM11.6863 30.9037C11.9809 30.9037 12.2533 30.8207 12.5033 30.6546C12.7533 30.4903 12.9569 30.2742 13.1141 30.0063C13.2694 29.7384 13.3471 29.4572 13.3471 29.1625V27.7026C13.3471 27.4168 13.2712 27.1445 13.1194 26.8855C12.9676 26.6266 12.7649 26.4141 12.5113 26.248C12.256 26.0837 11.972 26.0015 11.6595 26.0015C11.3916 26.0015 11.1353 26.0703 10.8907 26.2078C10.6442 26.3471 10.4406 26.5418 10.2799 26.7918C10.1192 27.0418 10.0388 27.3454 10.0388 27.7026V29.5777C10.0388 29.7117 10.1103 29.8831 10.2531 30.092C10.396 30.3028 10.5924 30.4903 10.8425 30.6546C11.0925 30.8207 11.3738 30.9037 11.6863 30.9037ZM17.9413 31.7074C17.4859 31.7074 17.0662 31.5886 16.6822 31.3511C16.2983 31.1153 15.9875 30.8028 15.75 30.4135C15.5143 30.026 15.3964 29.609 15.3964 29.1625V27.7026C15.3964 27.2561 15.5125 26.8427 15.7446 26.4623C15.9768 26.0837 16.2849 25.7783 16.6688 25.5461C17.0528 25.314 17.4769 25.1979 17.9413 25.1979C18.3966 25.1979 18.8181 25.3113 19.2056 25.5381C19.595 25.7667 19.9057 26.0685 20.1379 26.4435C20.37 26.8186 20.4861 27.2382 20.4861 27.7026V29.1625C20.4861 29.6 20.37 30.0153 20.1379 30.4081C19.9057 30.801 19.595 31.1153 19.2056 31.3511C18.8181 31.5886 18.3966 31.7074 17.9413 31.7074ZM17.9413 30.9037C18.2538 30.9037 18.5351 30.8207 18.7851 30.6546C19.0351 30.4903 19.236 30.2742 19.3878 30.0063C19.5396 29.7384 19.6155 29.4572 19.6155 29.1625V27.7026C19.6155 27.4168 19.5414 27.1445 19.3932 26.8855C19.2467 26.6266 19.0458 26.4141 18.7904 26.248C18.5368 26.0837 18.2538 26.0015 17.9413 26.0015C17.6287 26.0015 17.3475 26.0837 17.0974 26.248C16.8474 26.4141 16.6465 26.6266 16.4947 26.8855C16.3429 27.1445 16.267 27.4168 16.267 27.7026V29.1625C16.267 29.4572 16.3429 29.7384 16.4947 30.0063C16.6465 30.2742 16.8492 30.4903 17.1028 30.6546C17.3582 30.8207 17.6377 30.9037 17.9413 30.9037ZM24.0623 31.7074C23.6426 31.7074 23.2497 31.5886 22.8836 31.3511C22.5175 31.1153 22.2273 30.801 22.013 30.4081C21.7987 30.0153 21.6916 29.6 21.6916 29.1625V27.7026C21.6916 27.2382 21.7987 26.8186 22.013 26.4435C22.2273 26.0685 22.5175 25.7667 22.8836 25.5381C23.2497 25.3113 23.6515 25.1979 24.0891 25.1979C24.5266 25.1979 24.8945 25.3024 25.1927 25.5113C25.4928 25.722 25.7142 25.9569 25.8571 26.2158V21.7155C25.8571 21.6172 25.9017 21.5387 25.991 21.4797C26.0803 21.4226 26.183 21.394 26.2991 21.394C26.433 21.394 26.5375 21.4226 26.6125 21.4797C26.6893 21.5387 26.7277 21.6172 26.7277 21.7155V31.2654C26.7277 31.3547 26.6893 31.435 26.6125 31.5064C26.5375 31.5779 26.433 31.6136 26.2991 31.6136C26.1919 31.6136 26.0982 31.5779 26.0178 31.5064C25.9374 31.435 25.8973 31.3547 25.8973 31.2654V30.676C25.7544 30.9528 25.5151 31.1939 25.1793 31.3993C24.8454 31.6047 24.473 31.7074 24.0623 31.7074ZM24.2096 30.9037C24.5311 30.9037 24.8141 30.8207 25.0588 30.6546C25.3052 30.4903 25.4999 30.3028 25.6428 30.092C25.7856 29.8831 25.8571 29.7117 25.8571 29.5777V27.7026C25.8571 27.3454 25.7767 27.0418 25.616 26.7918C25.4553 26.5418 25.2499 26.3471 24.9999 26.2078C24.7498 26.0703 24.4909 26.0015 24.223 26.0015C23.9194 26.0015 23.6426 26.0837 23.3926 26.248C23.1426 26.4141 22.9417 26.6266 22.7899 26.8855C22.6381 27.1445 22.5622 27.4168 22.5622 27.7026V29.1625C22.5622 29.4572 22.6381 29.7384 22.7899 30.0063C22.9417 30.2742 23.1426 30.4903 23.3926 30.6546C23.6426 30.8207 23.915 30.9037 24.2096 30.9037ZM30.7834 31.7074C30.194 31.7074 29.7074 31.5957 29.3234 31.3725C28.9395 31.1493 28.6537 30.8457 28.4662 30.4617C28.2787 30.0778 28.1849 29.6447 28.1849 29.1625V27.7294C28.1849 27.2561 28.2769 26.8275 28.4609 26.4435C28.643 26.0596 28.9288 25.756 29.3181 25.5327C29.7056 25.3095 30.194 25.1979 30.7834 25.1979C31.1584 25.1979 31.487 25.2443 31.7692 25.3372C32.0495 25.4318 32.2683 25.5461 32.4255 25.6801C32.5808 25.814 32.6585 25.9435 32.6585 26.0685C32.6585 26.1221 32.6433 26.1819 32.613 26.248C32.5808 26.3158 32.5362 26.3739 32.479 26.4221C32.4201 26.4721 32.3549 26.4971 32.2835 26.4971C32.2031 26.4971 32.1121 26.4542 32.0103 26.3685C31.9067 26.2846 31.7656 26.2024 31.587 26.1221C31.4084 26.0417 31.1539 26.0015 30.8236 26.0015C30.2432 26.0015 29.8038 26.1551 29.5056 26.4623C29.2056 26.7712 29.0556 27.1936 29.0556 27.7294V29.1625C29.0556 29.7072 29.2056 30.1331 29.5056 30.4403C29.8038 30.7492 30.2476 30.9037 30.837 30.9037C31.1763 30.9037 31.4397 30.8609 31.6272 30.7751C31.8147 30.6912 31.9603 30.6064 32.0638 30.5207C32.1656 30.4367 32.2612 30.3948 32.3505 30.3948C32.4308 30.3948 32.5005 30.4171 32.5594 30.4617C32.6166 30.5064 32.6612 30.5599 32.6934 30.6224C32.7237 30.685 32.7389 30.7519 32.7389 30.8234C32.7389 30.9394 32.6585 31.0662 32.4978 31.2037C32.3371 31.343 32.1121 31.4618 31.8227 31.56C31.5317 31.6582 31.1852 31.7074 30.7834 31.7074ZM35.3239 31.7074C34.8239 31.7074 34.3953 31.5618 34.0381 31.2707C33.6809 30.9814 33.5023 30.5376 33.5023 29.9394C33.5023 29.4482 33.6345 29.0705 33.8988 28.8062C34.1613 28.5437 34.5274 28.3607 34.9971 28.2571C35.465 28.1553 36.007 28.1044 36.6231 28.1044H37.3062V27.7829C37.3062 27.4972 37.2553 27.2132 37.1535 26.9311C37.05 26.6507 36.8848 26.4185 36.658 26.2346C36.4294 26.0524 36.1186 25.9614 35.7257 25.9614C35.4311 25.9614 35.19 25.9926 35.0025 26.0551C34.815 26.1176 34.6676 26.1819 34.5605 26.248C34.4533 26.3158 34.364 26.3498 34.2926 26.3498C34.1854 26.3498 34.1006 26.2962 34.0381 26.189C33.9756 26.0819 33.9443 25.9792 33.9443 25.881C33.9443 25.7649 34.0363 25.6551 34.2203 25.5515C34.4024 25.4497 34.6346 25.3649 34.9167 25.297C35.1971 25.2309 35.4757 25.1979 35.7525 25.1979C36.3508 25.1979 36.8267 25.3202 37.1803 25.5649C37.5321 25.8113 37.7866 26.131 37.9438 26.5239C38.0992 26.9168 38.1768 27.3365 38.1768 27.7829V31.2654C38.1768 31.3636 38.1393 31.4457 38.0643 31.5118C37.9875 31.5797 37.8822 31.6136 37.7482 31.6136C37.6411 31.6136 37.5473 31.5797 37.467 31.5118C37.3866 31.4457 37.3464 31.3636 37.3464 31.2654V30.676C37.1142 30.935 36.833 31.1716 36.5026 31.3859C36.1722 31.6002 35.7793 31.7074 35.3239 31.7074ZM35.5382 30.9707C35.8329 30.9707 36.1142 30.8948 36.382 30.743C36.6499 30.5912 36.8714 30.4055 37.0464 30.1858C37.2196 29.9679 37.3062 29.7608 37.3062 29.5643V28.7071H36.7437C36.3419 28.7071 35.9606 28.7312 35.5998 28.7794C35.2373 28.8294 34.9426 28.9348 34.7158 29.0955C34.4872 29.2563 34.373 29.5107 34.373 29.859C34.373 30.243 34.4872 30.5242 34.7158 30.7028C34.9426 30.8814 35.2168 30.9707 35.5382 30.9707ZM41.5119 31.7074C41.0923 31.7074 40.7262 31.6538 40.4136 31.5466C40.1011 31.4395 39.8555 31.3118 39.677 31.1636C39.4984 31.0171 39.4091 30.8769 39.4091 30.743C39.4091 30.6805 39.4225 30.6198 39.4493 30.5608C39.4761 30.5037 39.5136 30.4528 39.5618 30.4081C39.6118 30.3635 39.6636 30.3412 39.7171 30.3412C39.8154 30.3412 39.9243 30.393 40.044 30.4965C40.1654 30.5983 40.335 30.7028 40.5529 30.81C40.7726 30.9171 41.0833 30.9707 41.4851 30.9707C41.9941 30.9707 42.3513 30.8743 42.5567 30.6814C42.762 30.4903 42.8647 30.2697 42.8647 30.0197C42.8647 29.7251 42.7861 29.4947 42.629 29.3286C42.4736 29.1643 42.2682 29.0348 42.0129 28.9402C41.7593 28.8473 41.4914 28.7625 41.2092 28.6857C40.9288 28.6107 40.661 28.5125 40.4056 28.391C40.152 28.2714 39.9466 28.1044 39.7895 27.8901C39.6341 27.6758 39.5564 27.3856 39.5564 27.0195C39.5564 26.7337 39.6278 26.4498 39.7707 26.1676C39.9136 25.8872 40.1386 25.6551 40.4458 25.4711C40.7547 25.289 41.1637 25.1979 41.6727 25.1979C41.9673 25.1979 42.2531 25.2291 42.5299 25.2917C42.8067 25.3542 43.0317 25.4363 43.2049 25.5381C43.3799 25.6417 43.4675 25.747 43.4675 25.8542C43.4675 25.8988 43.4514 25.9569 43.4192 26.0283C43.3889 26.0998 43.3469 26.164 43.2933 26.2212C43.2397 26.2801 43.1772 26.3096 43.1058 26.3096C43.0344 26.3096 42.9379 26.2757 42.8165 26.2078C42.6968 26.1417 42.5433 26.0792 42.3558 26.0203C42.1682 25.9631 41.945 25.9346 41.6861 25.9346C41.3646 25.9346 41.1056 25.9926 40.9092 26.1087C40.7128 26.2248 40.5699 26.3605 40.4806 26.5159C40.3913 26.673 40.3467 26.8275 40.3467 26.9793C40.3467 27.2382 40.427 27.4347 40.5877 27.5686C40.7485 27.7026 40.9556 27.8115 41.2092 27.8954C41.4646 27.9812 41.7325 28.0615 42.0129 28.1365C42.295 28.2133 42.5629 28.3187 42.8165 28.4526C43.0719 28.5866 43.2773 28.7741 43.4326 29.0152C43.5898 29.2563 43.6684 29.5777 43.6684 29.9795C43.6684 30.5064 43.4808 30.926 43.1058 31.2386C42.7308 31.5511 42.1995 31.7074 41.5119 31.7074ZM47.4455 31.6136H47.0704C46.3829 31.6136 45.856 31.4573 45.4899 31.1448C45.1238 30.8323 44.9408 30.3322 44.9408 29.6447V22.5861C44.9408 22.4879 44.9872 22.4093 45.0801 22.3503C45.1747 22.2932 45.2712 22.2646 45.3694 22.2646C45.4855 22.2646 45.5882 22.2932 45.6775 22.3503C45.7667 22.4093 45.8114 22.4879 45.8114 22.5861V25.2783H47.5526C47.6419 25.2783 47.7133 25.314 47.7669 25.3854C47.8205 25.4568 47.8473 25.5417 47.8473 25.6399C47.8473 25.7381 47.8205 25.8229 47.7669 25.8944C47.7133 25.9658 47.6419 26.0015 47.5526 26.0015H45.8114V29.6447C45.8114 30.0822 45.9052 30.3876 46.0927 30.5608C46.2802 30.7358 46.6061 30.8234 47.0704 30.8234H47.4455C47.5705 30.8234 47.666 30.8609 47.7321 30.9359C47.7999 31.0127 47.8339 31.1046 47.8339 31.2118C47.8339 31.3189 47.7999 31.4127 47.7321 31.4931C47.666 31.5734 47.5705 31.6136 47.4455 31.6136ZM52.0235 31.6136C51.9074 31.6136 51.8092 31.5823 51.7288 31.5198C51.6485 31.4573 51.6083 31.377 51.6083 31.2788V23.8585C51.6083 23.4031 51.7181 22.9897 51.9378 22.6182C52.1557 22.2485 52.4459 21.9521 52.8084 21.7289C53.1691 21.5056 53.5638 21.394 53.9924 21.394H54.3273C54.4523 21.394 54.546 21.4342 54.6085 21.5146C54.671 21.5949 54.7023 21.6887 54.7023 21.7958C54.7023 21.8941 54.671 21.9833 54.6085 22.0637C54.546 22.1441 54.4523 22.1843 54.3273 22.1843H54.0996C53.796 22.1843 53.5218 22.2575 53.2772 22.4039C53.0307 22.5521 52.8388 22.7486 52.7012 22.9932C52.5619 23.2397 52.4878 23.5058 52.4789 23.7915V25.2783H54.3942C54.4925 25.2783 54.5684 25.314 54.6219 25.3854C54.6755 25.4568 54.7023 25.5372 54.7023 25.6265C54.7023 25.7247 54.6755 25.8113 54.6219 25.8863C54.5684 25.9631 54.4925 26.0015 54.3942 26.0015H52.4789V31.2788C52.4789 31.377 52.4343 31.4573 52.345 31.5198C52.2557 31.5823 52.1485 31.6136 52.0235 31.6136ZM56.0417 31.6136C55.9256 31.6136 55.8247 31.5779 55.739 31.5064C55.6551 31.435 55.6131 31.3547 55.6131 31.2654V25.5997C55.6131 25.5015 55.6551 25.4229 55.739 25.364C55.8247 25.3068 55.9256 25.2783 56.0417 25.2783C56.1667 25.2783 56.2712 25.3068 56.3551 25.364C56.4408 25.4229 56.4837 25.5015 56.4837 25.5997V31.2654C56.4837 31.3547 56.4408 31.435 56.3551 31.5064C56.2712 31.5779 56.1667 31.6136 56.0417 31.6136ZM56.0417 23.4031C55.881 23.4031 55.7426 23.3469 55.6265 23.2343C55.5104 23.1236 55.4524 22.9924 55.4524 22.8406C55.4524 22.6888 55.5104 22.5593 55.6265 22.4521C55.7426 22.345 55.881 22.2914 56.0417 22.2914C56.2114 22.2914 56.3515 22.345 56.4623 22.4521C56.5748 22.5593 56.631 22.6888 56.631 22.8406C56.631 22.9924 56.5748 23.1236 56.4623 23.2343C56.3515 23.3469 56.2114 23.4031 56.0417 23.4031ZM58.5732 31.6136C58.4571 31.6136 58.3562 31.5779 58.2704 31.5064C58.1865 31.435 58.1445 31.3547 58.1445 31.2654V25.5997C58.1445 25.5015 58.1865 25.4229 58.2704 25.364C58.3562 25.3068 58.4571 25.2783 58.5732 25.2783C58.6892 25.2783 58.7875 25.3068 58.8678 25.364C58.9482 25.4229 58.9884 25.5015 58.9884 25.5997V26.2158C59.1312 25.9569 59.3545 25.722 59.6581 25.5113C59.9617 25.3024 60.3367 25.1979 60.7832 25.1979C61.2118 25.1979 61.6064 25.3113 61.9672 25.5381C62.3297 25.7667 62.6181 26.0685 62.8324 26.4435C63.0467 26.8186 63.1539 27.2382 63.1539 27.7026V31.2654C63.1539 31.3814 63.1092 31.4681 63.0199 31.5252C62.9306 31.5841 62.828 31.6136 62.7119 31.6136C62.6137 31.6136 62.5172 31.5841 62.4226 31.5252C62.3297 31.4681 62.2833 31.3814 62.2833 31.2654V27.7026C62.2833 27.4168 62.2074 27.1445 62.0556 26.8855C61.9038 26.6266 61.7029 26.4141 61.4529 26.248C61.2028 26.0837 60.926 26.0015 60.6224 26.0015C60.3545 26.0015 60.0974 26.0703 59.8509 26.2078C59.6063 26.3471 59.4054 26.5418 59.2482 26.7918C59.0928 27.0418 59.0152 27.3454 59.0152 27.7026V31.2654C59.0152 31.3547 58.9723 31.435 58.8866 31.5064C58.8026 31.5779 58.6982 31.6136 58.5732 31.6136ZM66.9015 31.7074C66.4818 31.7074 66.0889 31.5886 65.7228 31.3511C65.3567 31.1153 65.0665 30.801 64.8522 30.4081C64.6379 30.0153 64.5308 29.6 64.5308 29.1625V27.7026C64.5308 27.2382 64.6379 26.8186 64.8522 26.4435C65.0665 26.0685 65.3567 25.7667 65.7228 25.5381C66.0889 25.3113 66.4908 25.1979 66.9283 25.1979C67.3658 25.1979 67.7346 25.3024 68.0346 25.5113C68.3329 25.722 68.5534 25.9569 68.6963 26.2158V21.7155C68.6963 21.6172 68.7409 21.5387 68.8302 21.4797C68.9195 21.4226 69.0222 21.394 69.1383 21.394C69.2722 21.394 69.3776 21.4226 69.4544 21.4797C69.5294 21.5387 69.5669 21.6172 69.5669 21.7155V31.2654C69.5669 31.3547 69.5294 31.435 69.4544 31.5064C69.3776 31.5779 69.2722 31.6136 69.1383 31.6136C69.0312 31.6136 68.9374 31.5779 68.857 31.5064C68.7767 31.435 68.7365 31.3547 68.7365 31.2654V30.676C68.5936 30.9528 68.3552 31.1939 68.0212 31.3993C67.6855 31.6047 67.3123 31.7074 66.9015 31.7074ZM67.0488 30.9037C67.3703 30.9037 67.6542 30.8207 67.9007 30.6546C68.1454 30.4903 68.3391 30.3028 68.482 30.092C68.6249 29.8831 68.6963 29.7117 68.6963 29.5777V27.7026C68.6963 27.3454 68.6159 27.0418 68.4552 26.7918C68.2945 26.5418 68.0891 26.3471 67.8391 26.2078C67.5891 26.0703 67.3301 26.0015 67.0622 26.0015C66.7586 26.0015 66.4818 26.0837 66.2318 26.248C65.9818 26.4141 65.7809 26.6266 65.6291 26.8855C65.4773 27.1445 65.4014 27.4168 65.4014 27.7026V29.1625C65.4014 29.4572 65.4773 29.7384 65.6291 30.0063C65.7809 30.2742 65.9818 30.4903 66.2318 30.6546C66.4818 30.8207 66.7542 30.9037 67.0488 30.9037ZM73.8932 31.7074C73.3306 31.7074 72.8332 31.6002 72.4011 31.3859C71.9671 31.1716 71.6278 30.8751 71.3831 30.4965C71.1367 30.1162 71.0135 29.6715 71.0135 29.1625V27.6624C71.0135 27.2159 71.1295 26.8052 71.3617 26.4301C71.5939 26.0551 71.9046 25.756 72.2939 25.5327C72.6814 25.3095 73.1074 25.1979 73.5717 25.1979C74.0182 25.1979 74.4316 25.3024 74.812 25.5113C75.1906 25.722 75.496 26.0105 75.7281 26.3766C75.9603 26.7427 76.0764 27.1623 76.0764 27.6356C76.0764 27.9838 76.0183 28.2312 75.9022 28.3776C75.7862 28.5258 75.6415 28.6178 75.4683 28.6535C75.2933 28.6893 75.1075 28.7071 74.9111 28.7071H71.8841V29.2027C71.8841 29.7384 72.076 30.1626 72.46 30.4751C72.844 30.7876 73.3306 30.9439 73.9199 30.9439C74.2771 30.9439 74.5539 30.8993 74.7504 30.81C74.9468 30.7207 75.1013 30.6314 75.2138 30.5421C75.3245 30.4528 75.429 30.4081 75.5272 30.4081C75.5987 30.4081 75.6638 30.4323 75.7228 30.4805C75.7799 30.5305 75.8246 30.5867 75.8567 30.6492C75.8871 30.7117 75.9022 30.7698 75.9022 30.8234C75.9022 30.9216 75.8219 31.0421 75.6612 31.185C75.5004 31.3279 75.2683 31.4502 74.9647 31.552C74.6611 31.6556 74.3039 31.7074 73.8932 31.7074ZM71.8841 27.5552V28.0642H74.5629C74.8307 28.0642 75.0093 28.0347 75.0986 27.9758C75.1879 27.9187 75.2326 27.7963 75.2326 27.6088C75.2326 27.3231 75.1638 27.0507 75.0263 26.7918C74.887 26.5328 74.6905 26.323 74.437 26.1623C74.1816 26.0015 73.8887 25.9212 73.5583 25.9212C73.2547 25.9212 72.9761 25.9944 72.7225 26.1408C72.4671 26.2891 72.2636 26.4855 72.1118 26.7302C71.96 26.9766 71.8841 27.2516 71.8841 27.5552ZM77.8042 31.6136C77.6881 31.6136 77.5872 31.5779 77.5015 31.5064C77.4175 31.435 77.3756 31.3547 77.3756 31.2654V25.5997C77.3756 25.5015 77.4175 25.4229 77.5015 25.364C77.5872 25.3068 77.6881 25.2783 77.8042 25.2783C77.9203 25.2783 78.0185 25.3068 78.0989 25.364C78.1792 25.4229 78.2194 25.5015 78.2194 25.5997V26.256C78.3176 26.0774 78.4516 25.9078 78.6212 25.747C78.7909 25.5863 78.9918 25.4542 79.224 25.3506C79.4561 25.2488 79.7195 25.1979 80.0142 25.1979H80.483C80.5812 25.1979 80.6634 25.2354 80.7294 25.3104C80.7973 25.3872 80.8312 25.4836 80.8312 25.5997C80.8312 25.7069 80.7973 25.8006 80.7294 25.881C80.6634 25.9614 80.5812 26.0015 80.483 26.0015H80.0142C79.7195 26.0015 79.4356 26.0792 79.1623 26.2346C78.8909 26.3917 78.6703 26.6159 78.5007 26.907C78.331 27.1963 78.2462 27.5463 78.2462 27.9571V31.2654C78.2462 31.3547 78.2033 31.435 78.1176 31.5064C78.0337 31.5779 77.9292 31.6136 77.8042 31.6136Z" fill="url(#paint2_linear_5_131)"/>
</g>
</g>
</g>
</g>
</g>
</g>
</g>
</g>
</g>
<defs>
<linearGradient id="paint0_linear_5_131" x1="50.2179" y1="15.7529" x2="50.2179" y2="30.5004" gradientUnits="userSpaceOnUse">
<stop stop-color="#4B91F7"/>
<stop offset="1" stop-color="#367AF6"/>
</linearGradient>
<linearGradient id="paint1_linear_5_131" x1="45" y1="0.204483" x2="45" y2="55.9105" gradientUnits="userSpaceOnUse">
<stop stop-color="#4B91F7"/>
<stop offset="1" stop-color="#367AF6"/>
</linearGradient>
<linearGradient id="paint2_linear_5_131" x1="44.9997" y1="21.394" x2="44.9997" y2="34.721" gradientUnits="userSpaceOnUse">
<stop stop-color="#4B91F7"/>
<stop offset="1" stop-color="#367AF6"/>
</linearGradient>
<clipPath id="clip0_5_131">
<rect width="90" height="56.115" fill="white"/>
</clipPath>
<clipPath id="clip1_5_131">
<rect width="89.8567" height="56.1604" fill="white" transform="translate(0.0715332 -0.0227184)"/>
</clipPath>
<clipPath id="clip2_5_131">
<rect width="56.4931" height="55.7061" fill="white" transform="translate(16.7534 0.204468)"/>
</clipPath>
<clipPath id="clip3_5_131">
<rect width="71.8854" height="13.327" fill="white" transform="translate(9.05713 21.394)"/>
</clipPath>
<clipPath id="clip4_5_131">
<rect width="71.8854" height="13.327" fill="white" transform="translate(9.05713 21.394)"/>
</clipPath>
<clipPath id="clip5_5_131">
<rect width="71.8854" height="13.327" fill="white" transform="translate(9.05713 21.394)"/>
</clipPath>
<clipPath id="clip6_5_131">
<rect width="71.8854" height="13.327" fill="white" transform="translate(9.05713 21.394)"/>
</clipPath>
<clipPath id="clip7_5_131">
<rect width="71.8854" height="13.327" fill="white" transform="translate(9.05713 21.394)"/>
</clipPath>
<clipPath id="clip8_5_131">
<rect width="71.8854" height="13.327" fill="white" transform="translate(9.05713 21.394)"/>
</clipPath>
<clipPath id="clip9_5_131">
<rect width="71.8854" height="13.327" fill="white" transform="translate(9.05713 21.394)"/>
</clipPath>
</defs>
</svg>
